<svg width="48" height="48" viewBox="0 0 48 48" fill="none" xmlns="http://www.w3.org/2000/svg">
<path d="M45.9922 27.1412C44.3537 37.616 35.1903 45.7113 24.1243 45.7113C11.9089 45.7113 2 35.9208 2 23.8595C2 11.7905 11.9012 2 24.1243 2C35.1903 2 44.3615 10.033 46 20.5079H39.8496C38.3043 13.338 31.8433 7.97229 24.1243 7.97229C15.2404 7.97229 8.04165 15.0877 8.04165 23.8595C8.04165 32.6313 15.2404 39.7468 24.1243 39.7468C31.9054 39.7468 38.3819 34.3888 39.8885 27.1412H45.9922Z" fill="black"/>
<path d="M24.1242 31.3249C28.3021 31.3249 31.6879 27.9733 31.6879 23.8518C31.6879 19.7303 28.3099 16.3942 24.1242 16.3942C19.9618 16.3942 16.5682 19.7303 16.5682 23.8518C16.5682 27.9733 19.954 31.3249 24.1242 31.3249Z" fill="#FE5000"/>
<path d="M24.1241 33.1213C18.9445 33.1213 14.751 28.9687 14.751 23.8518C14.751 18.7349 18.9445 14.59 24.1241 14.59C29.3116 14.59 33.5128 18.7349 33.5128 23.8518C33.5128 28.9687 29.3116 33.1213 24.1241 33.1213ZM24.1241 9.71423C16.211 9.71423 9.80432 16.0442 9.80432 23.8595C9.80432 31.6749 16.211 38.0049 24.1241 38.0049C32.0373 38.0049 38.4517 31.6826 38.4517 23.8595C38.4439 16.0442 32.0295 9.71423 24.1241 9.71423Z" fill="black"/>
</svg>
