<svg width="48" height="48" viewBox="0 0 48 48" fill="none" xmlns="http://www.w3.org/2000/svg">
<path d="M38.424 33.2208C38.424 32.3616 37.944 31.9464 37.548 31.38C37.2624 28.5648 35.7336 22.9176 29.04 19.8936C27.3936 19.1496 25.68 17.3016 25.7784 14.1336C25.8912 10.8576 27.18 7.49037 27.3984 4.67997C27.6096 1.95117 25.8144 0.719971 24.012 0.719971C22.2096 0.719971 20.412 1.95357 20.6256 4.67997C20.844 7.48797 22.1328 10.8576 22.2456 14.1336C22.356 17.2992 20.6304 19.1448 18.984 19.8936C12.2928 22.9176 10.7616 28.5648 10.476 31.38C10.0872 31.9464 9.60001 32.3616 9.60001 33.2208C9.60001 34.08 10.1208 34.7448 10.6032 35.244C11.2296 40.5408 16.2456 47.0832 24.012 47.0832C31.7784 47.0832 36.7944 40.5432 37.4208 35.244C37.9032 34.74 38.424 34.0752 38.424 33.2208ZM24.024 2.89917C25.1184 2.89917 25.6128 4.41117 25.308 6.15357C24.9648 8.11197 24.3096 12.7728 24.024 12.7728C23.688 12.7728 23.1024 8.36397 22.7352 6.17037C22.4304 4.42077 22.9176 2.89677 24.012 2.89677L24.024 2.89917ZM24.024 41.5128C19.6104 41.5128 16.0272 37.788 16.0272 33.1944C16.0272 28.6008 19.6104 24.8736 24.024 24.8736C28.4376 24.8736 32.0064 28.5912 32.0064 33.1896C32.0064 37.788 28.4304 41.508 24.012 41.508L24.024 41.5128Z" fill="black"/>
<path d="M38.424 33.2208C38.424 32.3616 37.944 31.9464 37.548 31.38C37.2624 28.5648 35.7336 22.9176 29.04 19.8936C27.3936 19.1496 25.68 17.3016 25.7784 14.1336C25.8912 10.8576 27.18 7.49037 27.3984 4.67997C27.6096 1.95117 25.8144 0.719971 24.012 0.719971C22.2096 0.719971 20.412 1.95357 20.6256 4.67997C20.844 7.48797 22.1328 10.8576 22.2456 14.1336C22.356 17.2992 20.6304 19.1448 18.984 19.8936C12.2928 22.9176 10.7616 28.5648 10.476 31.38C10.0872 31.9464 9.60001 32.3616 9.60001 33.2208C9.60001 34.08 10.1208 34.7448 10.6032 35.244C11.2296 40.5408 16.2456 47.0832 24.012 47.0832C31.7784 47.0832 36.7944 40.5432 37.4208 35.244C37.9032 34.74 38.424 34.0752 38.424 33.2208ZM24.024 2.89917C25.1184 2.89917 25.6128 4.41117 25.308 6.15357C24.9648 8.11197 24.3096 12.7728 24.024 12.7728C23.688 12.7728 23.1024 8.36397 22.7352 6.17037C22.4304 4.42077 22.9176 2.89677 24.012 2.89677L24.024 2.89917ZM24.024 41.5128C19.6104 41.5128 16.0272 37.788 16.0272 33.1944C16.0272 28.6008 19.6104 24.8736 24.024 24.8736C28.4376 24.8736 32.0064 28.5912 32.0064 33.1896C32.0064 37.788 28.4304 41.508 24.012 41.508L24.024 41.5128Z" fill="black"/>
<path d="M24.0121 24.8688C19.5985 24.8688 16.0153 28.5936 16.0153 33.1896C16.0153 37.7856 19.5985 41.508 24.0121 41.508C28.4257 41.508 32.0065 37.7808 32.0065 33.1896C32.0065 28.5984 28.4305 24.8688 24.0121 24.8688ZM26.2969 37.5408C24.0361 37.5408 22.1977 35.6208 22.1977 33.2808C22.1977 30.9408 24.0361 29.016 26.2969 29.016C28.5577 29.016 30.3961 30.936 30.3961 33.2808C30.3961 35.6256 28.5577 37.5408 26.2969 37.5408Z" fill="white"/>
<path d="M38.424 33.2208C38.424 32.3616 37.944 31.9464 37.548 31.38C37.2624 28.5648 35.7336 22.9176 29.04 19.8936C27.3936 19.1496 25.68 17.3016 25.7784 14.1336C25.8912 10.8576 27.18 7.49037 27.3984 4.67997C27.6096 1.95117 25.8144 0.719971 24.012 0.719971C22.2096 0.719971 20.412 1.95357 20.6256 4.67997C20.844 7.48797 22.1328 10.8576 22.2456 14.1336C22.356 17.2992 20.6304 19.1448 18.984 19.8936C12.2928 22.9176 10.7616 28.5648 10.476 31.38C10.0872 31.9464 9.60001 32.3616 9.60001 33.2208C9.60001 34.08 10.1208 34.7448 10.6032 35.244C11.2296 40.5408 16.2456 47.0832 24.012 47.0832C31.7784 47.0832 36.7944 40.5432 37.4208 35.244C37.9032 34.74 38.424 34.0752 38.424 33.2208ZM24.024 2.89917C25.1184 2.89917 25.6128 4.41117 25.308 6.15357C24.9648 8.11197 24.3096 12.7728 24.024 12.7728C23.688 12.7728 23.1024 8.36397 22.7352 6.17037C22.4304 4.42077 22.9176 2.89677 24.012 2.89677L24.024 2.89917ZM24.024 41.5128C19.6104 41.5128 16.0272 37.788 16.0272 33.1944C16.0272 28.6008 19.6104 24.8736 24.024 24.8736C28.4376 24.8736 32.0064 28.5912 32.0064 33.1896C32.0064 37.788 28.4304 41.508 24.012 41.508L24.024 41.5128Z" fill="black"/>
<path d="M38.424 33.2208C38.424 32.3616 37.944 31.9464 37.548 31.38C37.2624 28.5648 35.7336 22.9176 29.04 19.8936C27.3936 19.1496 25.68 17.3016 25.7784 14.1336C25.8912 10.8576 27.18 7.49037 27.3984 4.67997C27.6096 1.95117 25.8144 0.719971 24.012 0.719971C22.2096 0.719971 20.412 1.95357 20.6256 4.67997C20.844 7.48797 22.1328 10.8576 22.2456 14.1336C22.356 17.2992 20.6304 19.1448 18.984 19.8936C12.2928 22.9176 10.7616 28.5648 10.476 31.38C10.0872 31.9464 9.60001 32.3616 9.60001 33.2208C9.60001 34.08 10.1208 34.7448 10.6032 35.244C11.2296 40.5408 16.2456 47.0832 24.012 47.0832C31.7784 47.0832 36.7944 40.5432 37.4208 35.244C37.9032 34.74 38.424 34.0752 38.424 33.2208ZM24.024 2.89917C25.1184 2.89917 25.6128 4.41117 25.308 6.15357C24.9648 8.11197 24.3096 12.7728 24.024 12.7728C23.688 12.7728 23.1024 8.36397 22.7352 6.17037C22.4304 4.42077 22.9176 2.89677 24.012 2.89677L24.024 2.89917ZM24.024 41.5128C19.6104 41.5128 16.0272 37.788 16.0272 33.1944C16.0272 28.6008 19.6104 24.8736 24.024 24.8736C28.4376 24.8736 32.0064 28.5912 32.0064 33.1896C32.0064 37.788 28.4304 41.508 24.012 41.508L24.024 41.5128Z" fill="black"/>
<path d="M24.0121 24.8688C19.5985 24.8688 16.0153 28.5936 16.0153 33.1896C16.0153 37.7856 19.5985 41.508 24.0121 41.508C28.4257 41.508 32.0065 37.7808 32.0065 33.1896C32.0065 28.5984 28.4305 24.8688 24.0121 24.8688ZM26.2969 37.5408C24.0361 37.5408 22.1977 35.6208 22.1977 33.2808C22.1977 30.9408 24.0361 29.016 26.2969 29.016C28.5577 29.016 30.3961 30.936 30.3961 33.2808C30.3961 35.6256 28.5577 37.5408 26.2969 37.5408Z" fill="white"/>
<path d="M26.2968 29.4048C24.2544 29.4048 22.5936 31.14 22.5936 33.2736C22.5936 35.4072 24.2544 37.1376 26.2968 37.1376C28.3392 37.1376 30 35.4048 30 33.2736C30 31.1424 28.3392 29.4048 26.2968 29.4048Z" fill="#FFE14F"/>
<path d="M26.2968 29.0112C24.036 29.0112 22.1976 30.9312 22.1976 33.276C22.1976 35.6208 24.036 37.5408 26.2968 37.5408C28.5576 37.5408 30.396 35.6208 30.396 33.2808C30.396 30.9408 28.5576 29.0112 26.2968 29.0112ZM26.2968 37.14C24.2544 37.14 22.5936 35.4072 22.5936 33.276C22.5936 31.1448 24.2544 29.4072 26.2968 29.4072C28.3392 29.4072 30 31.1424 30 33.276C30 35.4096 28.3392 37.14 26.2968 37.14Z" fill="black"/>
<path d="M28.764 17.0664C28.9582 17.0608 29.1463 16.9981 29.305 16.8861C29.4638 16.7742 29.586 16.618 29.6565 16.437C29.7271 16.2561 29.7427 16.0583 29.7016 15.8685C29.6604 15.6787 29.5643 15.5052 29.4252 15.3697C29.286 15.2342 29.1101 15.1427 28.9192 15.1065C28.7284 15.0704 28.5312 15.0912 28.3521 15.1665C28.1731 15.2417 28.0201 15.368 27.9124 15.5296C27.8047 15.6912 27.747 15.881 27.7464 16.0752C27.7418 16.2089 27.7652 16.342 27.8151 16.4661C27.8649 16.5902 27.9402 16.7025 28.036 16.7959C28.1318 16.8892 28.2461 16.9615 28.3714 17.008C28.4968 17.0546 28.6305 17.0745 28.764 17.0664ZM28.764 15.2784C28.9222 15.2784 29.0768 15.3253 29.2083 15.4133C29.3398 15.5012 29.4422 15.6262 29.5026 15.7723C29.563 15.9185 29.5787 16.0793 29.5477 16.2344C29.5166 16.3895 29.4403 16.5319 29.3283 16.6436C29.2163 16.7553 29.0736 16.8312 28.9185 16.8617C28.7633 16.8923 28.6025 16.8761 28.4565 16.8153C28.3105 16.7544 28.1859 16.6516 28.0983 16.5199C28.0108 16.3881 27.9643 16.2334 27.9648 16.0752C27.9552 15.968 27.9693 15.8599 28.0061 15.7587C28.0429 15.6575 28.1015 15.5656 28.1778 15.4896C28.254 15.4136 28.3461 15.3552 28.4474 15.3187C28.5487 15.2823 28.6568 15.2685 28.764 15.2784Z" fill="black"/>
<path d="M28.5408 16.2456H28.8288L29.04 16.656H29.28L29.04 16.2096C29.0969 16.1751 29.1434 16.1259 29.1747 16.0672C29.206 16.0085 29.2208 15.9424 29.2176 15.876C29.2233 15.8247 29.2171 15.7728 29.1996 15.7243C29.1821 15.6757 29.1538 15.6319 29.1167 15.596C29.0797 15.5601 29.0349 15.5331 28.9858 15.5172C28.9368 15.5012 28.8847 15.4967 28.8336 15.504H28.3536V16.6608H28.5552L28.5408 16.2456ZM28.5408 15.6912H28.836C28.9704 15.6912 28.9944 15.7944 28.9944 15.876C28.9944 15.9576 28.9704 16.0632 28.836 16.0632H28.5408V15.6912Z" fill="black"/>
</svg>
