<svg version="1.1" id="Layer_1" xmlns:x="ns_extend;" xmlns:i="ns_ai;" xmlns:graph="ns_graphs;" xmlns="http://www.w3.org/2000/svg" xmlns:xlink="http://www.w3.org/1999/xlink" x="0px" y="0px" viewBox="0 0 40.1 52.2" style="enable-background:new 0 0 40.1 52.2;" xml:space="preserve">
 <style type="text/css">
  .st0{fill:#FFFFFF;}
	.st1{fill:#B10034;}
 </style>
 <metadata>
  <sfw xmlns="ns_sfw;">
   <slices>
   </slices>
   <sliceSourceBounds bottomLeftOrigin="true" height="52.2" width="40.1" x="14.8" y="71.5">
   </sliceSourceBounds>
  </sfw>
 </metadata>
 <g id="Header">
  <g id="Comp_x2F_Header_x2F_Max-L_x2F_default" transform="translate(-260.000000, -199.000000)">
   <g transform="translate(114.000000, 136.000000)">
    <g id="Header_x2F_CH">
     <g id="Navigation-Main">
      <g id="victorinox-logo" transform="translate(146.000000, 63.000000)">
       <g>
        <g id="Shield" transform="translate(55.208955, 0.000000)">
         <path id="Path" class="st0" d="M-52.3,23.5c0-5.6-0.9-11.1-2.6-16.2V7.2c1.3-0.7,4-2,6.7-3.5c2.9-1.6,6.1-3,7.7-3.4
									c2.1-0.4,4,0.2,5.2,2c1.2-1.8,3.1-2.5,5.2-2c1.7,0.3,4.8,1.8,7.7,3.4c2.7,1.5,5.3,2.8,6.7,3.5v0.1
									c-1.7,5.2-2.6,10.6-2.6,16.2c0,5.4,1,10.6,2.6,15.5v0.1c-8.9,3.4-14.4,7.4-19.5,12.9h-0.1c-5.1-5.4-10.6-9.6-19.5-12.9V39
									C-53.3,34.1-52.3,28.9-52.3,23.5">
         </path>
         <path id="Shape" class="st1" d="M-54.5,38.9c9.7,3.6,14.9,8.2,19.3,12.7c5.8-6.1,11.5-9.8,19.3-12.7
									c-1.7-5.5-2.4-10.6-2.4-15.4c0-5.3,0.9-10.8,2.6-16.1c-1.2-0.7-3.8-1.9-6.5-3.4c-3.3-1.8-6.2-3-7.7-3.4
									c-2.1-0.4-3.9,0.2-4.9,1.9l-0.3,0.3l-0.2-0.4c-1-1.6-2.9-2.4-4.9-1.9C-41.9,0.9-44.7,2.2-48,4c-2.8,1.5-5.2,2.8-6.5,3.4
									c1.6,5.4,2.4,10.8,2.4,16.2C-52,28.3-52.9,33.3-54.5,38.9L-54.5,38.9z M-35.1,52.2h-0.4c-4.3-4.5-9.7-9.2-19.4-12.8H-55
									l-0.1-0.3v-0.1c1.7-5.6,2.4-10.6,2.4-15.4c0-5.4-0.9-10.8-2.6-16.1V7.3l0.1-0.3h0.1c1.2-0.6,3.8-1.9,6.7-3.5
									c3.3-1.8,6.3-3.1,7.8-3.4c2.1-0.4,4.1,0.2,5.3,1.8c1.2-1.6,3.1-2.2,5.3-1.8c1.4,0.3,4.3,1.6,7.8,3.4
									c2.9,1.6,5.5,2.9,6.7,3.5h0.1l0.1,0.3v0.1c-1.7,5.4-2.6,10.8-2.6,16.1c0,4.8,0.8,9.9,2.6,15.4V39l-0.1,0.3h-0.1
									C-23.5,42.3-29.2,46-35.1,52.2z M-24.9,6.4c-2.2-1.1-4.6-2.2-5.8-2.5c-2.3-0.4-4.2,1.5-4.5,2.6l-0.1,0.2l-0.1-0.2
									c-0.3-1.1-2.1-3-4.5-2.6c-1.2,0.2-3.6,1.3-5.8,2.5S-50,8.7-51,9.1c1.3,4.3,2,8.7,2,13.4h3.1v-2.4h7.2v-7.3h6.3v7.3h7.2v2.4
									h3.3c0-4.7,0.7-9.1,2-13.4C-20.6,8.7-22.7,7.6-24.9,6.4L-24.9,6.4z M-35.3,47.2c4.3-4.2,9.7-8.1,15.6-10.1
									c-0.6-2-1.2-4.8-1.6-7.6c-0.3-2.6-0.4-5.1-0.4-5.3H-25v2.4h-7.2v7.3h-6.3v-7.3h-7.2v-2.4H-49c-0.1,4.3-0.8,9.1-1.9,12.9
									C-45,39.1-39.6,43.1-35.3,47.2L-35.3,47.2z">
         </path>
        </g>
       </g>
      </g>
     </g>
    </g>
   </g>
  </g>
 </g>
</svg>