<?xml version="1.0" encoding="utf-8"?>
<!-- Generator: Adobe Illustrator 27.0.0, SVG Export Plug-In . SVG Version: 6.00 Build 0)  -->
<svg version="1.1" id="Ebene_1" xmlns="http://www.w3.org/2000/svg" xmlns:xlink="http://www.w3.org/1999/xlink" x="0px" y="0px"
	 viewBox="0 0 158.74 175.04" style="enable-background:new 0 0 158.74 175.04;" xml:space="preserve">
<style type="text/css">
	.st0{fill:#E3000F;}
	.st1{fill:#FFFFFF;}
</style>
<g>
	<path d="M140.37,159.91c-2.8-4.74-7.92-4.46-7.92-4.46c-1.48,0-2.84,0.26-4.06,0.74c-1.2,0.48-2.23,1.16-3.1,2.02
		c-0.86,0.86-1.54,1.89-2.01,3.08c-0.48,1.2-0.73,2.53-0.73,3.98c0,1.45,0.25,2.78,0.74,3.98c0.48,1.18,1.16,2.21,2.02,3.06
		c0.86,0.85,1.88,1.52,3.06,1.98c1.19,0.47,2.51,0.72,3.94,0.72c1.15,0,2.22-0.16,3.22-0.48c1-0.33,1.91-0.8,2.71-1.43
		c0.78-0.6,1.44-1.35,1.99-2.23c0.46-0.69,0.8-1.42,1.05-2.27c0.17-0.59,0.29-1.23,0.35-1.94c0.06-0.68,0.09-1.45,0.1-2.31h-9.06
		v3.45h3.9h0.27l-0.04,0.27c-0.1,0.5-0.26,0.95-0.5,1.33c-0.22,0.36-0.5,0.67-0.82,0.92c-0.33,0.26-0.7,0.46-1.12,0.6
		c-0.42,0.15-0.86,0.24-1.32,0.29c-0.41,0.04-0.82,0.04-1.22,0c-0.31-0.03-0.6-0.09-0.89-0.17c-0.61-0.18-1.16-0.46-1.63-0.83
		c-0.49-0.38-0.91-0.86-1.24-1.41c-0.35-0.58-0.61-1.22-0.77-1.94c-0.17-0.77-0.22-1.53-0.14-2.28c0.03-0.28,0.08-0.55,0.14-0.81
		c0.09-0.39,0.22-0.76,0.37-1.1c0.26-0.57,0.6-1.05,1.01-1.46c0.43-0.43,0.94-0.78,1.51-1.02c0.7-0.29,1.4-0.41,2.1-0.36
		c0,0,2.54-0.09,3.8,2.38L140.37,159.91z"/>
	<polygon points="100.58,155.69 100.58,174.55 104.81,174.55 104.81,162.54 114.97,174.74 118.64,174.74 118.64,155.9 114.41,155.9 
		114.41,167.89 104.25,155.69 	"/>
	<rect x="91.05" y="155.9" width="4.24" height="18.65"/>
	<polygon points="75.78,155.9 75.78,174.55 86.77,174.55 86.77,170.92 80.02,170.92 80.02,155.9 	"/>
	<polygon points="60.13,155.9 60.13,174.55 71.12,174.55 71.12,170.92 64.37,170.92 64.37,155.9 	"/>
	<rect x="50.41" y="155.9" width="4.24" height="18.65"/>
	<polygon points="31.21,155.82 26.99,168.16 23.32,155.9 18.92,155.9 24.94,174.55 28.65,174.55 32.62,163.16 36.48,174.55 
		40.19,174.55 46.42,155.9 42.02,155.9 38.21,168.16 34.1,155.82 	"/>
	<polygon points="1.45,155.9 1.45,159.53 8.97,159.53 0,174.55 15.28,174.55 15.28,170.92 7.07,170.92 16,155.9 	"/>
</g>
<g>
	<rect y="0" class="st0" width="141.73" height="141.73"/>
	<path class="st1" d="M117.03,49.14V24.18h6.51v-8.84h-15.53v24.53H95.73c-2.81-0.94-3.43-6.7-3.5-7.44
		c3.81-1.24,6.57-4.82,6.57-9.05c0-5.26-4.26-9.52-9.52-9.52s-9.52,4.26-9.52,9.52c0,4.23,2.76,7.81,6.57,9.05
		c-0.07,0.74-0.69,6.5-3.5,7.44H58.9c-2.81-0.94-3.43-6.69-3.5-7.44c3.81-1.24,6.57-4.82,6.57-9.05c0-5.26-4.26-9.52-9.52-9.52
		s-9.52,4.26-9.52,9.52c0,4.23,2.76,7.81,6.57,9.05c-0.07,0.74-0.69,6.5-3.5,7.44H24.7v24.8h-6.51v8.97h15.53v-24.5h5.26l8.89,25.43
		L29.46,92.98v25.68h-7.02v8.89h16.29v-30.5l13.91-13.91l13.53,13.53v21.99h-6.89v8.89l23.18,0v-8.89h-6.89V96.68l13.53-13.53
		L103,97.05v30.5h16.29v-8.89h-7.02V92.98L93.85,74.57l8.89-25.43H117.03z M70.87,88.35L57.02,74.57l8.89-25.43h9.9l8.89,25.43
		L70.87,88.35z"/>
</g>
<path d="M147.48,6.15c0-2.92,2.2-5.13,5.03-5.13c2.79,0,5,2.2,5,5.13c0,2.97-2.2,5.16-5,5.16C149.68,11.31,147.48,9.12,147.48,6.15z
	 M152.5,12.34c3.36,0,6.24-2.61,6.24-6.19c0-3.54-2.87-6.16-6.24-6.16c-3.4,0-6.27,2.61-6.27,6.16
	C146.24,9.73,149.11,12.34,152.5,12.34z M151.2,6.64h1.24l1.88,3.09h1.21l-2.02-3.13c1.04-0.13,1.84-0.69,1.84-1.96
	c0-1.4-0.83-2.02-2.51-2.02h-2.71v7.12h1.08V6.64z M151.2,5.73v-2.2h1.47c0.75,0,1.55,0.16,1.55,1.04c0,1.09-0.82,1.16-1.73,1.16
	H151.2z"/>
</svg>
