<svg width="116" height="70" viewBox="0 0 116 70" fill="none" xmlns="http://www.w3.org/2000/svg">
<path d="M14.2261 27.6762H22.0399V28.9234H11.4299V10H14.2261V27.6762Z" fill="currentColor"/>
<path d="M28.2705 17.7883C27.8619 17.7883 27.5066 17.8014 27.2044 17.8277C26.9023 17.8538 26.6277 17.8887 26.3809 17.9322C26.1341 17.9757 25.9042 18.0258 25.6914 18.0826C25.4787 18.1393 25.2658 18.1982 25.0531 18.2592L24.7466 17.4319C25.4617 17.169 26.2086 16.9801 26.9874 16.8656C27.7662 16.7512 28.5045 16.6938 29.2026 16.6938C30.0963 16.6938 30.8304 16.7405 31.405 16.8338C31.9795 16.9271 32.4285 17.082 32.7519 17.2984C33.0754 17.5147 33.2988 17.8031 33.4222 18.1636C33.5456 18.5242 33.6073 18.976 33.6073 19.519V28.9235H29.4196C28.279 28.9235 27.3065 28.8046 26.5022 28.5671C25.6978 28.3295 25.0403 28.0093 24.5296 27.6063C24.0188 27.2033 23.6444 26.741 23.406 26.2192C23.1677 25.6974 23.0486 25.148 23.0486 24.5712C23.0486 23.8586 23.1613 23.2307 23.3868 22.6877C23.6125 22.1448 23.938 21.6888 24.3636 21.3197C24.7891 20.9507 25.3084 20.6707 25.9212 20.4798C26.5341 20.2889 27.232 20.1935 28.0152 20.1935C28.4407 20.1935 28.9238 20.2656 29.4643 20.4099C30.0048 20.554 30.5219 20.7704 31.0155 21.0588V19.4643C31.0155 19.2682 30.9942 19.0698 30.9517 18.8694C30.9091 18.669 30.7985 18.4898 30.6198 18.3321C30.4411 18.1742 30.1665 18.0442 29.7962 17.9419C29.426 17.8394 28.9174 17.7883 28.2705 17.7883ZM31.0155 27.8799V21.9878C30.607 21.7418 30.1814 21.5594 29.7387 21.4406C29.2962 21.3218 28.8068 21.2625 28.2705 21.2625C27.8449 21.2625 27.4683 21.3389 27.1405 21.4915C26.8129 21.6442 26.5383 21.8606 26.3171 22.1405C26.0958 22.4205 25.9276 22.7556 25.8127 23.1459C25.6978 23.5362 25.6404 23.9688 25.6404 24.444C25.6404 24.5796 25.6468 24.7579 25.6595 24.9784C25.6723 25.199 25.7148 25.4366 25.7872 25.6911C25.8595 25.9456 25.9702 26.2023 26.1192 26.461C26.2681 26.7198 26.4788 26.9552 26.7512 27.1673C27.0235 27.3794 27.3683 27.5512 27.7853 27.6826C28.2024 27.8141 28.7131 27.8799 29.3175 27.8799H31.0155Z" fill="currentColor"/>
<path d="M40.1189 16.6938C40.4763 16.6938 40.7871 16.7087 41.0509 16.7384C41.3147 16.7681 41.5637 16.8127 41.7978 16.872C42.0318 16.9314 42.2638 16.9993 42.4936 17.0757C42.7235 17.152 42.9788 17.2369 43.2596 17.3302L43.2341 18.4501C42.8341 18.3058 42.4106 18.1785 41.9637 18.0683C41.5169 17.958 40.9913 17.9028 40.387 17.9028C40.2593 17.9028 40.106 17.9198 39.9273 17.9537C39.7486 17.9876 39.5784 18.0449 39.4166 18.1255C39.2549 18.2061 39.1187 18.3143 39.0081 18.4501C38.8975 18.5857 38.842 18.7512 38.842 18.9463C38.842 19.1669 38.9421 19.4342 39.1421 19.7481C39.3421 20.0619 39.6592 20.4522 40.0934 20.9189L41.4595 22.4586C41.7488 22.7895 42.0362 23.1098 42.3213 23.4194C42.6065 23.7292 42.8597 24.0324 43.0809 24.3294C43.3023 24.6263 43.4831 24.9212 43.6236 25.2139C43.764 25.5065 43.8342 25.7971 43.8342 26.0855C43.8342 26.6455 43.7065 27.1206 43.4512 27.5109C43.1958 27.9012 42.8639 28.2214 42.4553 28.4717C42.0468 28.722 41.585 28.9022 41.07 29.0125C40.5551 29.1229 40.0381 29.178 39.5187 29.178C38.7952 29.178 38.1547 29.0995 37.5973 28.9425C37.0398 28.7856 36.5141 28.5629 36.0204 28.2744L36.1226 27.1291C36.5141 27.3327 36.9398 27.5214 37.3993 27.6954C37.859 27.8694 38.3314 27.9563 38.8165 27.9563C39.6167 27.9563 40.2168 27.8163 40.6168 27.5363C41.0168 27.2564 41.2168 26.8492 41.2168 26.3146C41.2168 25.9414 41.0615 25.5511 40.7509 25.1439C40.4402 24.7366 40.055 24.2869 39.5954 23.7949L38.2421 22.2805C37.8845 21.8309 37.5803 21.4534 37.3291 21.148C37.0781 20.8425 36.8758 20.5711 36.7226 20.3335C36.5695 20.0959 36.4567 19.8711 36.3844 19.659C36.3119 19.4468 36.2757 19.2093 36.2757 18.9463C36.2757 18.5137 36.3757 18.1531 36.5758 17.8646C36.7758 17.5762 37.0483 17.345 37.3929 17.1711C37.7377 16.9972 38.1441 16.8742 38.6123 16.802C39.0804 16.7299 39.5826 16.6938 40.1189 16.6938Z" fill="currentColor"/>
<path d="M50.9969 18.081H49.2734V28.9234H46.822V18.081H45.1621V16.9357H46.822V13.0287L49.2734 12.2906V16.9357H50.9969V18.081Z" fill="currentColor"/>
<path d="M91.2789 30.3105H57.6871V32.0794H91.2789V30.3105Z" fill="currentColor"/>
<path d="M20.163 60C19.2268 60 18.3266 59.8813 17.4627 59.6437C16.5987 59.4062 15.7901 59.0732 15.0368 58.6447C14.2836 58.2163 13.5984 57.7009 12.9813 57.0986C12.3642 56.4961 11.8343 55.828 11.3916 55.0942C10.949 54.3603 10.6065 53.5714 10.3639 52.7272C10.1213 51.883 10 51.0028 10 50.0865C10 49.1873 10.1213 48.3177 10.3639 47.4778C10.6065 46.6378 10.949 45.8531 11.3916 45.1234C11.8343 44.3938 12.3642 43.7279 12.9813 43.1255C13.5984 42.5232 14.2836 42.0099 15.0368 41.5857C15.7901 41.1615 16.5987 40.8305 17.4627 40.5931C18.3266 40.3555 19.2268 40.2367 20.163 40.2367C21.0909 40.2367 21.9846 40.3533 22.8442 40.5867C23.704 40.82 24.5083 41.1508 25.2573 41.5793C26.0063 42.0078 26.6895 42.5232 27.3066 43.1255C27.9237 43.7279 28.4513 44.3938 28.8897 45.1234C29.3281 45.8531 29.6685 46.6378 29.9112 47.4778C30.1537 48.3177 30.275 49.1873 30.275 50.0865C30.275 51.0028 30.1537 51.883 29.9112 52.7272C29.6685 53.5714 29.3281 54.3603 28.8897 55.0942C28.4513 55.828 27.9237 56.4961 27.3066 57.0986C26.6895 57.7009 26.0063 58.2163 25.2573 58.6447C24.5083 59.0732 23.704 59.4062 22.8442 59.6437C21.9846 59.8813 21.0909 60 20.163 60ZM20.163 58.7657C21.3206 58.7657 22.3442 58.5408 23.2337 58.0912C24.1231 57.6415 24.8701 57.0264 25.4744 56.2459C26.0788 55.4654 26.5362 54.547 26.8469 53.4907C27.1576 52.4345 27.313 51.2998 27.313 50.0865C27.313 48.8818 27.1597 47.7534 26.8533 46.7015C26.5468 45.6495 26.0937 44.7375 25.4936 43.9653C24.8935 43.1934 24.1466 42.5847 23.2528 42.1393C22.3591 41.6939 21.3292 41.4712 20.163 41.4712C18.9799 41.4712 17.9435 41.6939 17.0541 42.1393C16.1647 42.5847 15.4199 43.1934 14.8198 43.9653C14.2197 44.7375 13.7686 45.6495 13.4665 46.7015C13.1642 47.7534 13.0132 48.8818 13.0132 50.0865C13.0132 51.2998 13.1664 52.4345 13.4727 53.4907C13.7792 54.547 14.2325 55.4654 14.8326 56.2459C15.4327 57.0264 16.1796 57.6415 17.0732 58.0912C17.967 58.5408 18.9969 58.7657 20.163 58.7657Z" fill="currentColor"/>
<path d="M35.2416 48.6358C35.7864 48.3983 36.2886 48.2011 36.7482 48.0441C37.2078 47.8872 37.6377 47.7599 38.0377 47.6624C38.4378 47.5648 38.8102 47.4969 39.1549 47.4587C39.4997 47.4205 39.8337 47.4015 40.1572 47.4015C40.9573 47.4015 41.568 47.6093 41.9894 48.025C42.4106 48.4407 42.6214 49.1109 42.6214 50.0356V59.631H40.0294V50.4302C40.0294 50.2436 40.0104 50.0527 39.9721 49.8575C39.9338 49.6624 39.8635 49.4885 39.7614 49.3357C39.6592 49.183 39.5209 49.0579 39.3465 48.9604C39.1719 48.8628 38.9528 48.814 38.689 48.814C38.2548 48.814 37.7526 48.867 37.1823 48.9731C36.612 49.0791 35.9651 49.2975 35.2416 49.6284V59.631H32.6498V47.6432H35.2416V48.6358Z" fill="currentColor"/>
<path d="M64.4158 40.7075V41.9547H55.5933V47.6941H64.1476V48.9412H55.5933V58.3839H64.4158V59.6309H52.7972V40.7075H64.4158Z" fill="currentColor"/>
<path d="M71.0678 48.4959C70.6592 48.4959 70.3038 48.509 70.0016 48.5352C69.6994 48.5614 69.425 48.5962 69.1782 48.6399C68.9313 48.6833 68.7015 48.7334 68.4886 48.7901C68.2759 48.8469 68.0631 48.9057 67.8502 48.9667L67.5439 48.1396C68.2588 47.8765 69.0057 47.6878 69.7845 47.5732C70.5634 47.4587 71.3018 47.4015 71.9998 47.4015C72.8935 47.4015 73.6277 47.4481 74.2021 47.5414C74.7767 47.6348 75.2257 47.7896 75.5492 48.0059C75.8726 48.2222 76.096 48.5107 76.2195 48.8713C76.3429 49.2319 76.4046 49.6837 76.4046 50.2266V59.631H72.2168C71.0763 59.631 70.1038 59.5123 69.2994 59.2747C68.495 59.0372 67.8375 58.7168 67.3267 58.3139C66.8161 57.9109 66.4416 57.4485 66.2033 56.9267C65.9649 56.405 65.8457 55.8557 65.8457 55.2788C65.8457 54.5661 65.9585 53.9383 66.1841 53.3954C66.4097 52.8524 66.7353 52.3964 67.1608 52.0273C67.5864 51.6583 68.1057 51.3783 68.7185 51.1873C69.3314 50.9966 70.0293 50.9011 70.8124 50.9011C71.238 50.9011 71.7211 50.9731 72.2615 51.1174C72.802 51.2616 73.3191 51.4779 73.8128 51.7665V50.1719C73.8128 49.9757 73.7915 49.7774 73.749 49.5769C73.7064 49.3765 73.5958 49.1975 73.417 49.0397C73.2382 48.8818 72.9638 48.7517 72.5935 48.6494C72.2232 48.5471 71.7147 48.4959 71.0678 48.4959ZM73.8128 58.5874V52.6955C73.4042 52.4494 72.9787 52.267 72.536 52.1482C72.0934 52.0294 71.6039 51.97 71.0678 51.97C70.6422 51.97 70.2655 52.0464 69.9378 52.1991C69.6101 52.3518 69.3356 52.5681 69.1142 52.8481C68.893 53.1281 68.7249 53.4633 68.61 53.8534C68.495 54.2437 68.4376 54.6764 68.4376 55.1515C68.4376 55.2873 68.4439 55.4654 68.4567 55.686C68.4695 55.9066 68.512 56.1441 68.5845 56.3987C68.6568 56.6532 68.7674 56.9098 68.9164 57.1686C69.0653 57.4273 69.2759 57.6627 69.5484 57.8749C69.8207 58.0869 70.1655 58.2588 70.5826 58.3903C70.9996 58.5218 71.5103 58.5874 72.1147 58.5874H73.8128Z" fill="currentColor"/>
<path d="M82.3416 48.585C82.682 48.3474 82.9821 48.1522 83.2417 47.9995C83.5014 47.8469 83.7333 47.726 83.9375 47.6368C84.1419 47.5478 84.3312 47.4863 84.5057 47.4523C84.6803 47.4184 84.8526 47.4015 85.0228 47.4015C85.6867 47.4015 86.1804 47.6305 86.5038 48.0886C86.8273 48.5468 87.0188 49.1958 87.0784 50.0356L84.8441 50.6975C84.759 50.0866 84.644 49.654 84.4993 49.3995C84.3546 49.1449 84.129 49.0176 83.8226 49.0176C83.6439 49.0176 83.4332 49.0558 83.1906 49.1322C82.9481 49.2085 82.665 49.3357 82.3416 49.514V59.631H79.7498V47.6432H82.3416V48.585Z" fill="currentColor"/>
<path d="M93.7687 48.7885H92.045V59.6309H89.5936V48.7885H87.9338V47.6432H89.5936V43.7364L92.045 42.9983V47.6432H93.7687V48.7885Z" fill="currentColor"/>
<path d="M98.6204 48.6358C99.1652 48.3982 99.6674 48.201 100.127 48.044C100.587 47.8871 101.016 47.7598 101.417 47.6623C101.817 47.5647 102.189 47.4968 102.534 47.4587C102.878 47.4205 103.213 47.4014 103.536 47.4014C104.336 47.4014 104.947 47.6093 105.368 48.025C105.789 48.4407 106 49.1109 106 50.0356V59.6309H103.408V50.4302C103.408 50.2436 103.389 50.0527 103.351 49.8575C103.313 49.6624 103.244 49.4884 103.146 49.3357C103.049 49.183 102.912 49.0579 102.738 48.9604C102.563 48.8628 102.344 48.8139 102.08 48.8139C101.646 48.8139 101.142 48.8669 100.568 48.973C99.9929 49.0791 99.3439 49.2975 98.6204 49.6284V59.6309H96.0413V40.7075H98.6204V48.6358Z" fill="currentColor"/>
</svg>
